# xmcd
#
# Track frame offsets:
#	150
#	16002
#	37230
#	52030
#	79215
#	102731
#	119884
#	139712
#	161736
#	178463
#	198600
#
# Disc length: 3118 seconds
#
# Revision: 1
# Processed by: cddbd v1.5.2PL0 Copyright (c) Steve Scherf et al.
# Submitted via: audiograbber 1.83.01
#
DISCID=ab0c2c0b
DTITLE=Hot Club of Calgary - Hot Club of Calgary
DYEAR=2007
DGENRE=Blues
TTITLE0=Charlie Parker - My Little Suede Shoes
TTITLE1=Hart A. Wand - Dallas Blues
TTITLE2=Victor Farrell - Fanyola Num-Bum
TTITLE3=Eddie Leonard - Ida!  Sweet as Apple Cider
TTITLE4=Victor Herbert - Indian Summer: An American Idyll
TTITLE5=Victor Farrell - G.C. Bop
TTITLE6=Ray Lopez, Alcide Nunez - Livery Stable Blues
TTITLE7=Edward Ellington, Irwing Mills - It Don't Mean a Thing (If It Ain't Got
TTITLE7=That Swing)
TTITLE8=Maurice Ravel - Pavane
TTITLE9=Victor Farrell - Swing One
TTITLE10=Bob Haymes - That's All
EXTD=James Bailey (guitar), Ian G. Burleigh (clarinet, saxophones), Victor Farr
EXTD=ell (guitar]\n\nRecorded at Glow Music Arts [glowmusicarts.com] in Decembe
EXTD=r 2007.  Graphic Design by Jonathan J. Davis, 1m ARt and Design [1m.ca].
EXTT0=
EXTT1=
EXTT2=
EXTT3=
EXTT4=
EXTT5=
EXTT6=
EXTT7=
EXTT8=
EXTT9=
EXTT10=
PLAYORDER=
